<svg xmlns="http://www.w3.org/2000/svg" version="1.1" xmlns:xlink="http://www.w3.org/1999/xlink" xmlns:svgjs="http://svgjs.dev/svgjs" width="1500" height="3049" viewBox="0 0 1500 3049"><g transform="matrix(1,0,0,1,-0.485655737705315,-4.917741935483946)"><svg viewBox="0 0 122 248" data-background-color="#100530" preserveAspectRatio="xMidYMid meet" height="3049" width="1500" xmlns="http://www.w3.org/2000/svg" xmlns:xlink="http://www.w3.org/1999/xlink"><g id="tight-bounds" transform="matrix(1,0,0,1,0.03950000000003229,0.4000000000000057)"><svg viewBox="0 0 121.92083880016015 247.2" height="247.2" width="121.92083880016015"><g><svg></svg></g><g><svg viewBox="0 0 121.92083880016015 247.2" height="247.2" width="121.92083880016015"><g transform="matrix(1,0,0,1,0,47.215199999999996)"><svg viewBox="0 0 121.92083880016015 152.7696" height="152.7696" width="121.92083880016015"><g><svg viewBox="0 0 244.43135999999998 306.2780855359973" height="152.7696" width="121.92083880016015"><g transform="matrix(1,0,0,1,0,130.8760300966907)"><svg viewBox="0 0 244.43135999999998 175.40205543930665" height="175.40205543930665" width="244.43135999999998"><g id="textblocktransform"><svg viewBox="0 0 244.43135999999998 175.40205543930665" height="175.40205543930665" width="244.43135999999998" id="textblock"><g><svg viewBox="0 0 244.43135999999998 127.73854600583088" height="127.73854600583088" width="244.43135999999998"><g transform="matrix(1,0,0,1,0,0)"><svg width="244.43135999999998" viewBox="4.49 -35.01 66.99000000000001 35.01" height="127.73854600583088" data-palette-color="#ffffff"><g class="wordmark-text-0" data-fill-palette-color="primary" id="text-0"><path d="M4.49-5L4.49-30Q4.49-31.03 4.88-31.95 5.27-32.86 5.96-33.53 6.64-34.2 7.56-34.61 8.47-35.01 9.5-35.01L9.5-35.01 28.49-35.01Q29.52-35.01 30.43-34.61 31.35-34.2 32.03-33.53 32.71-32.86 33.11-31.95 33.5-31.03 33.5-30L33.5-30 33.5-25.49 28.49-25.49 28.49-30 9.5-30 9.5-5 28.49-5 28.49-13.5 18.99-13.5 18.99-18.51 33.5-18.51 33.5-5Q33.5-3.98 33.11-3.06 32.71-2.15 32.03-1.46 31.35-0.78 30.43-0.39 29.52 0 28.49 0L28.49 0 9.5 0Q8.47 0 7.56-0.39 6.64-0.78 5.96-1.46 5.27-2.15 4.88-3.06 4.49-3.98 4.49-5L4.49-5ZM42.48-5L42.48-30Q42.48-31.03 42.87-31.95 43.26-32.86 43.94-33.53 44.63-34.2 45.54-34.61 46.46-35.01 47.48-35.01L47.48-35.01 66.48-35.01Q67.5-35.01 68.42-34.61 69.33-34.2 70.02-33.53 70.7-32.86 71.09-31.95 71.48-31.03 71.48-30L71.48-30 71.48-25.49 66.48-25.49 66.48-30 47.48-30 47.48-5 66.48-5 66.48-13.5 56.98-13.5 56.98-18.51 71.48-18.51 71.48-5Q71.48-3.98 71.09-3.06 70.7-2.15 70.02-1.46 69.33-0.78 68.42-0.39 67.5 0 66.48 0L66.48 0 47.48 0Q46.46 0 45.54-0.39 44.63-0.78 43.94-1.46 43.26-2.15 42.87-3.06 42.48-3.98 42.48-5L42.48-5Z" fill="#ffffff" data-fill-palette-color="primary"></path></g></svg></g></svg></g><g transform="matrix(1,0,0,1,46.68638976,157.89455099270342)"><svg viewBox="0 0 151.05858048 17.507504446603246" height="17.507504446603246" width="151.05858048"><g transform="matrix(1,0,0,1,0,0)"><svg width="151.05858048" viewBox="1.49 -35.01 392.62 45.51" height="17.507504446603246" data-palette-color="#bbb1da"><path d="M1.49-30L1.49-35.01 29.49-35.01 29.49-30 17.99-30 17.99 0 12.99 0 12.99-30 1.49-30ZM32-4.81L32-26 36.79-26 36.79-4.81 50.19-4.81 50.19-26 55-26 55 0 50.19 0 50.19-4.39Q50.12-3.49 49.7-2.69 49.29-1.88 48.64-1.28 48-0.68 47.17-0.34 46.34 0 45.41 0L45.41 0 36.79 0Q35.81 0 34.93-0.38 34.06-0.76 33.41-1.4 32.76-2.05 32.38-2.93 32-3.81 32-4.81L32-4.81ZM77.48-4.81L93.69-4.81 93.69-10.84 82.29-10.84Q81.29-10.84 80.41-11.22 79.53-11.6 78.89-12.24 78.24-12.89 77.86-13.77 77.48-14.65 77.48-15.65L77.48-15.65 77.48-21.19Q77.48-22.19 77.86-23.07 78.24-23.95 78.89-24.6 79.53-25.24 80.41-25.62 81.29-26 82.29-26L82.29-26 97.5-26 97.5-21.19 82.29-21.19 82.29-15.65 93.69-15.65Q94.69-15.65 95.56-15.27 96.43-14.89 97.09-14.25 97.75-13.6 98.12-12.72 98.5-11.84 98.5-10.84L98.5-10.84 98.5-4.81Q98.5-3.81 98.12-2.93 97.75-2.05 97.09-1.4 96.43-0.76 95.56-0.38 94.69 0 93.69 0L93.69 0 77.48 0 77.48-4.81ZM127.99-21.19L127.99-10.55 110.78-10.55 110.78-4.81 127.99-4.81 127.99 0 110.78 0Q109.8 0 108.93-0.38 108.05-0.76 107.4-1.4 106.75-2.05 106.37-2.93 106-3.81 106-4.81L106-4.81 106-21.19Q106-22.19 106.37-23.07 106.75-23.95 107.4-24.6 108.05-25.24 108.93-25.62 109.8-26 110.78-26L110.78-26 123.18-26Q124.18-26 125.06-25.62 125.94-25.24 126.59-24.6 127.24-23.95 127.61-23.07 127.99-22.19 127.99-21.19L127.99-21.19ZM123.18-21.19L110.78-21.19 110.78-15.36 123.18-15.36 123.18-21.19ZM134.48-21.19L134.48-26 140.83-26 140.83-34.01 145.64-34.01 145.64-26 154.19-26 154.19-21.19 145.64-21.19 145.64-4.81 154.19-4.81 154.19 0 145.64 0Q144.67 0 143.79-0.38 142.91-0.76 142.25-1.4 141.59-2.05 141.21-2.93 140.83-3.81 140.83-4.81L140.83-4.81 140.83-21.19 134.48-21.19ZM162.19-4.81L162.19-26 166.98-26 166.98-4.81 180.38-4.81 180.38-26 185.19-26 185.19 0 180.38 0 180.38-4.39Q180.31-3.49 179.89-2.69 179.48-1.88 178.83-1.28 178.18-0.68 177.35-0.34 176.52 0 175.6 0L175.6 0 166.98 0Q166 0 165.12-0.38 164.24-0.76 163.6-1.4 162.95-2.05 162.57-2.93 162.19-3.81 162.19-4.81L162.19-4.81ZM216.19-21.19L216.19-4.81Q216.19-3.81 215.82-2.93 215.44-2.05 214.79-1.4 214.14-0.76 213.26-0.38 212.38 0 211.38 0L211.38 0 197.98 0 197.98 10.5 193.2 10.5 193.2-26 197.98-26 197.98-21.61Q198.05-22.53 198.47-23.33 198.88-24.12 199.52-24.72 200.15-25.32 201-25.66 201.84-26 202.79-26L202.79-26 211.38-26Q212.38-26 213.26-25.62 214.14-25.24 214.79-24.6 215.44-23.95 215.82-23.07 216.19-22.19 216.19-21.19L216.19-21.19ZM197.98-4.81L211.38-4.81 211.38-21.19 197.98-21.19 197.98-4.81ZM239.19-5.81L239.19-21.19Q239.19-22.19 239.56-23.07 239.94-23.95 240.59-24.6 241.24-25.24 242.12-25.62 243-26 243.97-26L243.97-26 252.59-26Q253.54-26 254.4-25.65 255.25-25.29 255.9-24.67 256.54-24.05 256.95-23.21 257.35-22.36 257.37-21.41L257.37-21.41 257.37-26 262.18-26 262.18 5.69Q262.18 6.69 261.81 7.57 261.43 8.45 260.78 9.09 260.13 9.74 259.25 10.12 258.38 10.5 257.37 10.5L257.37 10.5 242.19 10.5 242.19 5.69 257.37 5.69 257.37-1 243.97-1Q243-1 242.12-1.38 241.24-1.76 240.59-2.4 239.94-3.05 239.56-3.93 239.19-4.81 239.19-5.81L239.19-5.81ZM243.97-5.81L257.37-5.81 257.37-21.19 243.97-21.19 243.97-5.81ZM270.19-4.81L270.19-11.35Q270.19-12.35 270.57-13.22 270.95-14.09 271.59-14.75 272.24-15.41 273.12-15.78 274-16.16 274.98-16.16L274.98-16.16 287.38-16.16 287.38-21.19 271.68-21.19 271.68-26 287.38-26Q288.38-26 289.26-25.62 290.14-25.24 290.78-24.6 291.43-23.95 291.81-23.07 292.19-22.19 292.19-21.19L292.19-21.19 292.19 0 287.38 0 287.38-4.39Q287.3-3.49 286.89-2.69 286.47-1.88 285.83-1.28 285.18-0.68 284.35-0.34 283.52 0 282.59 0L282.59 0 274.98 0Q274 0 273.12-0.38 272.24-0.76 271.59-1.4 270.95-2.05 270.57-2.93 270.19-3.81 270.19-4.81L270.19-4.81ZM274.98-11.35L274.98-4.81 287.38-4.81 287.38-11.35 274.98-11.35ZM331.78-21.19L320.8-21.19 320.8 0 315.99 0 315.99-21.19 304.98-21.19 304.98 0 300.19 0 300.19-26 304.98-26 304.98-21.41Q305.03-22.36 305.42-23.21 305.81-24.05 306.45-24.67 307.1-25.29 307.96-25.65 308.81-26 309.79-26L309.79-26 315.99-26Q316.94-26 317.79-25.65 318.65-25.29 319.31-24.67 319.97-24.05 320.37-23.21 320.77-22.36 320.8-21.41L320.8-21.41Q320.85-22.36 321.22-23.21 321.6-24.05 322.25-24.67 322.9-25.29 323.75-25.65 324.61-26 325.58-26L325.58-26 331.78-26Q332.79-26 333.66-25.62 334.54-25.24 335.19-24.6 335.84-23.95 336.22-23.07 336.59-22.19 336.59-21.19L336.59-21.19 336.59 0 331.78 0 331.78-21.19ZM366.6-21.19L366.6-10.55 349.38-10.55 349.38-4.81 366.6-4.81 366.6 0 349.38 0Q348.41 0 347.53-0.38 346.65-0.76 346-1.4 345.36-2.05 344.98-2.93 344.6-3.81 344.6-4.81L344.6-4.81 344.6-21.19Q344.6-22.19 344.98-23.07 345.36-23.95 346-24.6 346.65-25.24 347.53-25.62 348.41-26 349.38-26L349.38-26 361.79-26Q362.79-26 363.67-25.62 364.55-25.24 365.19-24.6 365.84-23.95 366.22-23.07 366.6-22.19 366.6-21.19L366.6-21.19ZM361.79-21.19L349.38-21.19 349.38-15.36 361.79-15.36 361.79-21.19ZM389.3-21.19L379.39-21.19 379.39 0 374.6 0 374.6-26 379.39-26 379.39-21.41Q379.44-22.36 379.83-23.21 380.22-24.05 380.86-24.67 381.51-25.29 382.36-25.65 383.22-26 384.2-26L384.2-26 389.3-26Q390.3-26 391.17-25.62 392.03-25.24 392.69-24.6 393.35-23.95 393.73-23.07 394.11-22.19 394.11-21.19L394.11-21.19 394.11-16.8 389.3-16.8 389.3-21.19Z" opacity="1" transform="matrix(1,0,0,1,0,0)" fill="#bbb1da" class="slogan-text-1" data-fill-palette-color="secondary" id="text-1"></path></svg></g></svg></g></svg></g></svg></g><g transform="matrix(1,0,0,1,46.68638976,0)"><svg viewBox="0 0 151.05858048 100.72002510981817" height="100.72002510981817" width="151.05858048"><g><svg xmlns="http://www.w3.org/2000/svg" xmlns:xlink="http://www.w3.org/1999/xlink" version="1.1" x="0" y="0" viewBox="14.8 26.738 70.4 46.94" enable-background="new 0 0 100 100" xml:space="preserve" height="100.72002510981817" width="151.05858048" class="icon-icon-0" data-fill-palette-color="accent" id="icon-0"><g fill="#bbb1da" data-fill-palette-color="accent"><path d="M81.85 33.438V30.098H75.15V26.738H61.75V36.798H38.279V26.738H24.87V30.098H18.17V33.438H14.8V63.608H18.17V70.308H21.51V73.678H34.91V63.608H31.569V46.838H34.91V43.498H41.62V46.838H44.979V53.548H55.04V46.838H58.38V43.498H65.09V46.838H68.45V63.608H65.09V73.678H78.49V70.308H81.849V63.608H85.2V33.438zM31.569 40.139V43.499H28.21V40.139H24.87V36.799H28.21V33.439H31.569V36.799H34.91V40.139zM65.09 40.139V36.799H68.45V33.439H71.79V36.799H75.149V40.139H71.79V43.499H68.45V40.139z" fill="#bbb1da" data-fill-palette-color="accent"></path><rect x="68.45" y="36.798" width="3.34" height="3.34" fill="#bbb1da" data-fill-palette-color="accent"></rect><rect x="58.38" y="46.838" width="6.71" height="6.71" fill="#bbb1da" data-fill-palette-color="accent"></rect><rect x="41.62" y="26.738" width="16.76" height="6.7" fill="#bbb1da" data-fill-palette-color="accent"></rect><rect x="34.91" y="46.838" width="6.71" height="6.71" fill="#bbb1da" data-fill-palette-color="accent"></rect></g></svg></g></svg></g><g></g></svg></g></svg></g><path d="M0 41.215L0 1 121.921 1 121.921 41.215 116.175 41.215 116.175 6.746 5.746 6.746 5.746 41.215 0 41.215M0 205.985L0 246.2 121.921 246.2 121.921 205.985 116.175 205.985 116.175 240.454 5.746 240.454 5.746 205.985 0 205.985" fill="#ffffff" stroke="transparent" data-fill-palette-color="tertiary"></path></svg></g><defs></defs></svg><rect width="121.92083880016015" height="247.2" fill="none" stroke="none" visibility="hidden"></rect></g></svg></g></svg>